<svg width="787" height="116" viewBox="0 0 787 116" fill="none" xmlns="http://www.w3.org/2000/svg">
<path d="M62.208 94.544H22.032H0V114.704C0 115.28 0.72 116 1.584 116H62.208C63.216 116 63.792 115.28 63.792 114.704V95.984C63.792 95.264 63.216 94.544 62.208 94.544ZM22.032 72.512V2.096C22.032 1.52 21.456 0.799998 20.592 0.799998H1.584C0.72 0.799998 0 1.52 0 2.096V72.512H22.032ZM200.71 114.272L156.934 1.664C156.502 0.511993 154.486 0.511993 154.054 1.664L110.422 114.272C109.99 115.136 110.566 116 111.862 116H131.59C132.166 116 132.886 115.712 133.03 115.136L155.494 50.912L178.246 115.136C178.39 115.712 179.11 116 179.542 116H199.414C200.422 116 201.142 115.136 200.71 114.272ZM304.701 35.072C304.701 47.744 287.709 47.744 287.709 47.744H270.429V21.392H287.709C287.709 21.392 304.701 21.248 304.701 35.072ZM326.733 33.776C326.733 -0.0640078 287.709 0.799998 287.709 0.799998H250.125C249.261 0.799998 248.541 1.52 248.541 2.096V69.2H270.429H287.709C287.709 69.2 306.285 68.336 306.285 81.872C306.285 92.96 294.909 94.976 287.709 94.976H270.573V116H287.709C295.485 116 328.317 114.56 328.317 82.448C328.317 82.448 329.037 64.592 310.749 58.4C319.533 54.8 326.733 47.168 326.733 33.776ZM422.497 96.272H410.977V55.52V20.528V0.799998H388.945V20.528V55.52V96.272H377.137C376.273 96.272 375.553 96.848 375.553 97.568V114.704C375.553 115.28 376.273 116 377.137 116H422.497C423.505 116 424.081 115.28 424.081 114.704V97.568C424.081 96.848 423.505 96.272 422.497 96.272ZM548.283 114.128C541.083 98.144 533.307 82.304 526.107 66.032C537.627 61.856 547.275 52.64 547.275 35.072C547.275 1.08799 514.875 0.799998 508.395 0.799998H471.099C470.379 0.799998 469.659 1.52 469.659 2.096V21.68H491.547H508.395C511.851 21.68 525.387 22.4 525.387 35.072C525.387 47.744 513.147 48.32 508.395 48.32H491.547H469.659V114.704C469.659 115.28 470.379 116 471.099 116H489.963C490.827 116 491.547 115.28 491.547 114.704V69.488H503.931L524.955 115.136C525.099 115.568 525.963 116 526.395 116H546.987C548.139 116 548.715 115.136 548.283 114.128ZM642.632 96.272H631.112V55.52V20.528V0.799998H609.08V20.528V55.52V96.272H597.272C596.408 96.272 595.688 96.848 595.688 97.568V114.704C595.688 115.28 596.408 116 597.272 116H642.632C643.64 116 644.216 115.28 644.216 114.704V97.568C644.216 96.848 643.64 96.272 642.632 96.272ZM785.122 0.799998H766.546C765.538 0.799998 764.818 1.52 764.818 2.096V77.12L711.682 1.23199C711.538 0.943996 710.674 0.799998 710.386 0.799998H691.234C690.514 0.799998 689.794 1.52 689.794 2.096V88.352H711.826V39.68L764.818 115.568C764.962 115.856 765.826 116 766.114 116H785.122C786.13 116 786.706 115.28 786.706 114.704V2.096C786.706 1.52 786.13 0.799998 785.122 0.799998Z" fill="#1B2E92"/>
</svg>
