<svg width="1016" height="382" viewBox="0 0 1016 382" fill="none" xmlns="http://www.w3.org/2000/svg">
<rect x="15" y="15" width="986" height="352" fill="#FF8652" stroke="#1B2E92" stroke-width="30"/>
<path d="M174.208 242.544H134.032H112V262.704C112 263.28 112.72 264 113.584 264H174.208C175.216 264 175.792 263.28 175.792 262.704V243.984C175.792 243.264 175.216 242.544 174.208 242.544ZM134.032 220.512V150.096C134.032 149.52 133.456 148.8 132.592 148.8H113.584C112.72 148.8 112 149.52 112 150.096V220.512H134.032ZM312.71 262.272L268.934 149.664C268.502 148.512 266.486 148.512 266.054 149.664L222.422 262.272C221.99 263.136 222.566 264 223.862 264H243.59C244.166 264 244.886 263.712 245.03 263.136L267.494 198.912L290.246 263.136C290.39 263.712 291.11 264 291.542 264H311.414C312.422 264 313.142 263.136 312.71 262.272ZM416.701 183.072C416.701 195.744 399.709 195.744 399.709 195.744H382.429V169.392H399.709C399.709 169.392 416.701 169.248 416.701 183.072ZM438.733 181.776C438.733 147.936 399.709 148.8 399.709 148.8H362.125C361.261 148.8 360.541 149.52 360.541 150.096V217.2H382.429H399.709C399.709 217.2 418.285 216.336 418.285 229.872C418.285 240.96 406.909 242.976 399.709 242.976H382.573V264H399.709C407.485 264 440.317 262.56 440.317 230.448C440.317 230.448 441.037 212.592 422.749 206.4C431.533 202.8 438.733 195.168 438.733 181.776ZM534.497 244.272H522.977V203.52V168.528V148.8H500.945V168.528V203.52V244.272H489.137C488.273 244.272 487.553 244.848 487.553 245.568V262.704C487.553 263.28 488.273 264 489.137 264H534.497C535.505 264 536.081 263.28 536.081 262.704V245.568C536.081 244.848 535.505 244.272 534.497 244.272ZM660.283 262.128C653.083 246.144 645.307 230.304 638.107 214.032C649.627 209.856 659.275 200.64 659.275 183.072C659.275 149.088 626.875 148.8 620.395 148.8H583.099C582.379 148.8 581.659 149.52 581.659 150.096V169.68H603.547H620.395C623.851 169.68 637.387 170.4 637.387 183.072C637.387 195.744 625.147 196.32 620.395 196.32H603.547H581.659V262.704C581.659 263.28 582.379 264 583.099 264H601.963C602.827 264 603.547 263.28 603.547 262.704V217.488H615.931L636.955 263.136C637.099 263.568 637.963 264 638.395 264H658.987C660.139 264 660.715 263.136 660.283 262.128ZM754.632 244.272H743.112V203.52V168.528V148.8H721.08V168.528V203.52V244.272H709.272C708.408 244.272 707.688 244.848 707.688 245.568V262.704C707.688 263.28 708.408 264 709.272 264H754.632C755.64 264 756.216 263.28 756.216 262.704V245.568C756.216 244.848 755.64 244.272 754.632 244.272ZM897.122 148.8H878.546C877.538 148.8 876.818 149.52 876.818 150.096V225.12L823.682 149.232C823.538 148.944 822.674 148.8 822.386 148.8H803.234C802.514 148.8 801.794 149.52 801.794 150.096V236.352H823.826V187.68L876.818 263.568C876.962 263.856 877.826 264 878.114 264H897.122C898.13 264 898.706 263.28 898.706 262.704V150.096C898.706 149.52 898.13 148.8 897.122 148.8Z" fill="#1B2E92"/>
</svg>
